<svg width="22" height="22" viewBox="0 0 22 22" fill="none" xmlns="http://www.w3.org/2000/svg">
<path d="M9.87518 11C9.87518 11.2984 9.9937 11.5845 10.2047 11.7955C10.4157 12.0065 10.7018 12.125 11.0002 12.125C11.2985 12.125 11.5847 12.0065 11.7957 11.7955C12.0067 11.5845 12.1252 11.2984 12.1252 11C12.1252 10.7016 12.0067 10.4155 11.7957 10.2045C11.5847 9.99353 11.2985 9.875 11.0002 9.875C10.7018 9.875 10.4157 9.99353 10.2047 10.2045C9.9937 10.4155 9.87518 10.7016 9.87518 11ZM14.5627 11C14.5627 11.2984 14.6812 11.5845 14.8922 11.7955C15.1032 12.0065 15.3893 12.125 15.6877 12.125C15.986 12.125 16.2722 12.0065 16.4832 11.7955C16.6942 11.5845 16.8127 11.2984 16.8127 11C16.8127 10.7016 16.6942 10.4155 16.4832 10.2045C16.2722 9.99353 15.986 9.875 15.6877 9.875C15.3893 9.875 15.1032 9.99353 14.8922 10.2045C14.6812 10.4155 14.5627 10.7016 14.5627 11ZM5.18768 11C5.18768 11.2984 5.30621 11.5845 5.51718 11.7955C5.72816 12.0065 6.01431 12.125 6.31268 12.125C6.61105 12.125 6.8972 12.0065 7.10817 11.7955C7.31915 11.5845 7.43768 11.2984 7.43768 11C7.43768 10.7016 7.31915 10.4155 7.10817 10.2045C6.8972 9.99353 6.61105 9.875 6.31268 9.875C6.01431 9.875 5.72816 9.99353 5.51718 10.2045C5.30621 10.4155 5.18768 10.7016 5.18768 11ZM20.6846 6.93125C20.1549 5.67266 19.3955 4.54297 18.4275 3.57266C17.4663 2.60796 16.3253 1.84114 15.0689 1.31563C13.7799 0.774219 12.4111 0.5 11.0002 0.5H10.9533C9.53299 0.507031 8.15721 0.788281 6.86346 1.34141C5.61789 1.87232 4.48752 2.64049 3.53534 3.60312C2.57674 4.57109 1.8244 5.69609 1.30409 6.95C0.765023 8.24844 0.493147 9.62891 0.500179 11.0492C0.508132 12.6769 0.893206 14.2806 1.62518 15.7344V19.2969C1.62518 19.5828 1.73877 19.857 1.94095 20.0592C2.14314 20.2614 2.41737 20.375 2.7033 20.375H6.26815C7.72196 21.107 9.32564 21.492 10.9533 21.5H11.0025C12.4064 21.5 13.7681 21.2281 15.0502 20.6961C16.3002 20.1768 17.437 19.419 18.3971 18.4648C19.365 17.5063 20.1267 16.3859 20.6588 15.1367C21.2119 13.843 21.4931 12.4672 21.5002 11.0469C21.5072 9.61953 21.2306 8.23438 20.6846 6.93125ZM17.1431 17.1969C15.5002 18.8234 13.3205 19.7188 11.0002 19.7188H10.9603C9.54705 19.7117 8.14315 19.3602 6.9033 18.6992L6.70643 18.5938H3.40643V15.2938L3.30096 15.0969C2.64002 13.857 2.28846 12.4531 2.28143 11.0398C2.27205 8.70312 3.16502 6.50937 4.8033 4.85703C6.43924 3.20469 8.62596 2.29062 10.9627 2.28125H11.0025C12.1744 2.28125 13.3111 2.50859 14.3822 2.95859C15.4275 3.39687 16.365 4.02734 17.1713 4.83359C17.9752 5.6375 18.608 6.57734 19.0463 7.62266C19.501 8.70547 19.7283 9.85391 19.7236 11.0398C19.7096 13.3742 18.7931 15.5609 17.1431 17.1969Z" fill="#595959"/>
</svg>
