<svg  xmlns="http://www.w3.org/2000/svg">
<symbol id="friend" viewBox="0 0 20 20">
    <g>
        <path d="M18.9061 16.0937H17.0311V14.2187C17.0311 14.1156 16.9467 14.0312 16.8436 14.0312H15.7186C15.6155 14.0312 15.5311 14.1156 15.5311 14.2187V16.0937H13.6561C13.553 16.0937 13.4686 16.1781 13.4686 16.2812V17.4062C13.4686 17.5093 13.553 17.5937 13.6561 17.5937H15.5311V19.4687C15.5311 19.5718 15.6155 19.6562 15.7186 19.6562H16.8436C16.9467 19.6562 17.0311 19.5718 17.0311 19.4687V17.5937H18.9061C19.0092 17.5937 19.0936 17.5093 19.0936 17.4062V16.2812C19.0936 16.1781 19.0092 16.0937 18.9061 16.0937ZM6.75376 9.68122C6.73266 9.47731 6.72094 9.27106 6.72094 9.06247C6.72094 8.68981 6.7561 8.32653 6.82173 7.97263C6.83813 7.88825 6.7936 7.80153 6.71626 7.76638C6.39751 7.62341 6.10454 7.42653 5.85141 7.1781C5.55315 6.88889 5.31844 6.54069 5.16227 6.15571C5.0061 5.77073 4.93189 5.35742 4.94438 4.94216C4.96548 4.18981 5.26782 3.47497 5.79516 2.93591C6.37407 2.34294 7.15219 2.0195 7.97954 2.02888C8.72719 2.03591 9.44907 2.32419 9.99516 2.83513C10.1803 3.00856 10.3397 3.20075 10.4733 3.407C10.5202 3.47966 10.6116 3.51013 10.6913 3.482C11.1038 3.33903 11.5397 3.23825 11.9874 3.19138C12.1186 3.17731 12.1936 3.03669 12.135 2.9195C11.3733 1.41247 9.81704 0.371845 8.01704 0.34372C5.42016 0.303876 3.25454 2.43435 3.25454 5.03122C3.25454 6.5031 3.93188 7.8156 4.9936 8.67575C4.24829 9.02028 3.56157 9.49606 2.96626 10.0914C1.68188 11.3734 0.95532 13.0656 0.908445 14.8726C0.907819 14.8976 0.912207 14.9225 0.921349 14.9458C0.930492 14.9691 0.944204 14.9903 0.961677 15.0082C0.979151 15.0262 1.00003 15.0404 1.02309 15.0501C1.04615 15.0598 1.07092 15.0648 1.09595 15.0648H2.41079C2.51157 15.0648 2.59594 14.9851 2.59829 14.8843C2.64282 13.525 3.1936 12.2523 4.16157 11.2867C4.85063 10.5976 5.69438 10.1195 6.61548 9.88747C6.70454 9.86169 6.76548 9.77497 6.75376 9.68122ZM17.3124 9.06247C17.3124 6.49841 15.2522 4.41481 12.6975 4.37497C10.1006 4.33513 7.93735 6.4656 7.93735 9.06247C7.93735 10.5343 8.61704 11.8468 9.67641 12.707C8.92338 13.0561 8.23787 13.5353 7.65141 14.1226C6.36704 15.4047 5.64048 17.0968 5.5936 18.9015C5.59298 18.9265 5.59736 18.9514 5.60651 18.9747C5.61565 18.998 5.62936 19.0192 5.64683 19.0372C5.66431 19.0551 5.68519 19.0693 5.70825 19.079C5.73131 19.0887 5.75608 19.0937 5.7811 19.0937H7.0936C7.19438 19.0937 7.27876 19.014 7.2811 18.9132C7.32563 17.5539 7.87641 16.2812 8.84438 15.3156C9.85454 14.3054 11.1952 13.75 12.6249 13.75C15.2124 13.75 17.3124 11.6523 17.3124 9.06247ZM14.7459 11.1836C14.1788 11.7508 13.4264 12.0625 12.6249 12.0625C11.8233 12.0625 11.0709 11.7508 10.5038 11.1836C10.2207 10.902 9.99709 10.5665 9.84612 10.1969C9.69514 9.82733 9.6199 9.4312 9.62485 9.032C9.63188 8.26325 9.93891 7.52028 10.4756 6.9695C11.0381 6.39294 11.7905 6.07185 12.5944 6.06247C13.3889 6.05544 14.16 6.36481 14.7272 6.92028C15.3084 7.48981 15.6272 8.25153 15.6272 9.06247C15.6249 9.86403 15.3131 10.6164 14.7459 11.1836Z"/>
    </g>
</symbol>
<symbol id="chat" viewBox="0 0 22 22">
        <g>
            <path d="M9.87519 11C9.87519 11.2984 9.99372 11.5845 10.2047 11.7955C10.4157 12.0065 10.7018 12.125 11.0002 12.125C11.2986 12.125 11.5847 12.0065 11.7957 11.7955C12.0067 11.5845 12.1252 11.2984 12.1252 11C12.1252 10.7016 12.0067 10.4155 11.7957 10.2045C11.5847 9.99353 11.2986 9.875 11.0002 9.875C10.7018 9.875 10.4157 9.99353 10.2047 10.2045C9.99372 10.4155 9.87519 10.7016 9.87519 11ZM14.5627 11C14.5627 11.2984 14.6812 11.5845 14.8922 11.7955C15.1032 12.0065 15.3893 12.125 15.6877 12.125C15.9861 12.125 16.2722 12.0065 16.4832 11.7955C16.6942 11.5845 16.8127 11.2984 16.8127 11C16.8127 10.7016 16.6942 10.4155 16.4832 10.2045C16.2722 9.99353 15.9861 9.875 15.6877 9.875C15.3893 9.875 15.1032 9.99353 14.8922 10.2045C14.6812 10.4155 14.5627 10.7016 14.5627 11ZM5.18769 11C5.18769 11.2984 5.30622 11.5845 5.5172 11.7955C5.72818 12.0065 6.01433 12.125 6.31269 12.125C6.61106 12.125 6.89721 12.0065 7.10819 11.7955C7.31917 11.5845 7.43769 11.2984 7.43769 11C7.43769 10.7016 7.31917 10.4155 7.10819 10.2045C6.89721 9.99353 6.61106 9.875 6.31269 9.875C6.01433 9.875 5.72818 9.99353 5.5172 10.2045C5.30622 10.4155 5.18769 10.7016 5.18769 11ZM20.6846 6.93125C20.1549 5.67266 19.3955 4.54297 18.4275 3.57266C17.4663 2.60796 16.3253 1.84114 15.0689 1.31563C13.7799 0.774219 12.4111 0.5 11.0002 0.5H10.9533C9.53301 0.507031 8.15723 0.788281 6.86348 1.34141C5.61791 1.87232 4.48753 2.64049 3.53535 3.60312C2.57676 4.57109 1.82441 5.69609 1.3041 6.95C0.765038 8.24844 0.493163 9.62891 0.500194 11.0492C0.508147 12.6769 0.893222 14.2806 1.62519 15.7344V19.2969C1.62519 19.5828 1.73878 19.857 1.94097 20.0592C2.14316 20.2614 2.41738 20.375 2.70332 20.375H6.26816C7.72198 21.107 9.32565 21.492 10.9533 21.5H11.0025C12.4064 21.5 13.7682 21.2281 15.0502 20.6961C16.3002 20.1768 17.437 19.419 18.3971 18.4648C19.365 17.5063 20.1268 16.3859 20.6588 15.1367C21.2119 13.843 21.4932 12.4672 21.5002 11.0469C21.5072 9.61953 21.2307 8.23438 20.6846 6.93125ZM17.1432 17.1969C15.5002 18.8234 13.3205 19.7188 11.0002 19.7188H10.9604C9.54707 19.7117 8.14316 19.3602 6.90332 18.6992L6.70644 18.5938H3.40644V15.2938L3.30098 15.0969C2.64004 13.857 2.28848 12.4531 2.28144 11.0398C2.27207 8.70312 3.16504 6.50937 4.80332 4.85703C6.43926 3.20469 8.62598 2.29062 10.9627 2.28125H11.0025C12.1744 2.28125 13.3111 2.50859 14.3822 2.95859C15.4275 3.39687 16.365 4.02734 17.1713 4.83359C17.9752 5.6375 18.608 6.57734 19.0463 7.62266C19.501 8.70547 19.7283 9.85391 19.7236 11.0398C19.7096 13.3742 18.7932 15.5609 17.1432 17.1969Z"/>
    </g>
</symbol>
<symbol id="notifications" viewBox="0 0 16 22">
    <g>
        <path d="M15.125 17H14.5625V9.03125C14.5625 5.72422 12.118 2.99141 8.9375 2.53672V1.625C8.9375 1.10703 8.51797 0.6875 8 0.6875C7.48203 0.6875 7.0625 1.10703 7.0625 1.625V2.53672C3.88203 2.99141 1.4375 5.72422 1.4375 9.03125V17H0.875C0.460156 17 0.125 17.3352 0.125 17.75V18.5C0.125 18.6031 0.209375 18.6875 0.3125 18.6875H5.375C5.375 20.1359 6.55156 21.3125 8 21.3125C9.44844 21.3125 10.625 20.1359 10.625 18.6875H15.6875C15.7906 18.6875 15.875 18.6031 15.875 18.5V17.75C15.875 17.3352 15.5398 17 15.125 17ZM8 19.8125C7.37891 19.8125 6.875 19.3086 6.875 18.6875H9.125C9.125 19.3086 8.62109 19.8125 8 19.8125ZM3.125 17V9.03125C3.125 7.72813 3.63125 6.50469 4.55234 5.58359C5.47344 4.6625 6.69688 4.15625 8 4.15625C9.30313 4.15625 10.5266 4.6625 11.4477 5.58359C12.3687 6.50469 12.875 7.72813 12.875 9.03125V17H3.125Z"/>
    </g>
</symbol>
<symbol id="info" viewBox="0 0 24 24">
    <g>
        <path d="M12 1.5C6.20156 1.5 1.5 6.20156 1.5 12C1.5 17.7984 6.20156 22.5 12 22.5C17.7984 22.5 22.5 17.7984 22.5 12C22.5 6.20156 17.7984 1.5 12 1.5ZM12 20.7188C7.18594 20.7188 3.28125 16.8141 3.28125 12C3.28125 7.18594 7.18594 3.28125 12 3.28125C16.8141 3.28125 20.7188 7.18594 20.7188 12C20.7188 16.8141 16.8141 20.7188 12 20.7188Z"/>
        <path d="M10.875 7.875C10.875 8.17337 10.9935 8.45952 11.2045 8.6705C11.4155 8.88147 11.7016 9 12 9C12.2984 9 12.5845 8.88147 12.7955 8.6705C13.0065 8.45952 13.125 8.17337 13.125 7.875C13.125 7.57663 13.0065 7.29048 12.7955 7.0795C12.5845 6.86853 12.2984 6.75 12 6.75C11.7016 6.75 11.4155 6.86853 11.2045 7.0795C10.9935 7.29048 10.875 7.57663 10.875 7.875ZM12.5625 10.5H11.4375C11.3344 10.5 11.25 10.5844 11.25 10.6875V17.0625C11.25 17.1656 11.3344 17.25 11.4375 17.25H12.5625C12.6656 17.25 12.75 17.1656 12.75 17.0625V10.6875C12.75 10.5844 12.6656 10.5 12.5625 10.5Z"/>
    </g>
</symbol>
<symbol id="like" viewBox="0 0 14 14">
    <g>
        <path d="M3.26562 6.74846V13.436L3.27031 6.74846H3.26562ZM11.675 5.36877H6.7625L6.9125 2.26877C6.92188 2.08283 6.83906 1.90783 6.68437 1.79221C6.58906 1.72189 6.47188 1.68596 6.35469 1.68752C6.04844 1.68908 5.77813 1.89689 5.69531 2.19221C5.11563 4.29221 4.68125 5.86721 4.39062 6.91877V12.3125H10.6313C10.7874 12.2425 10.9201 12.1289 11.0132 11.9853C11.1063 11.8417 11.156 11.6743 11.1562 11.5031C11.1562 11.3516 11.1203 11.2078 11.0484 11.0766L10.8313 10.6797L11.1734 10.3828C11.2698 10.2994 11.347 10.1962 11.3998 10.0803C11.4527 9.96434 11.4799 9.83837 11.4797 9.71096C11.4797 9.55939 11.4437 9.41564 11.3719 9.28439L11.1547 8.88752L11.4969 8.59064C11.5932 8.50723 11.6704 8.40403 11.7232 8.28809C11.7761 8.17215 11.8033 8.04618 11.8031 7.91877C11.8031 7.76721 11.7672 7.62346 11.6953 7.49221L11.4766 7.09377L11.8188 6.79689C11.9151 6.71348 11.9923 6.61028 12.0451 6.49434C12.098 6.3784 12.1252 6.25243 12.125 6.12502C12.125 5.82658 11.9531 5.53908 11.675 5.36877Z" fill="#E6F7FF"/>
        <path d="M0.75 7.25005V12.9375C0.75 13.2141 0.973437 13.4375 1.25 13.4375H2.26562V6.75005H1.25C0.973437 6.75005 0.75 6.97349 0.75 7.25005ZM12.8422 7.33911C13.1047 6.99224 13.25 6.56724 13.25 6.12505C13.25 5.42349 12.8578 4.75786 12.2266 4.39067C12.0641 4.29535 11.879 4.24519 11.6906 4.24536H7.94219L8.03594 2.32505C8.05937 1.86099 7.89531 1.42036 7.575 1.08442C7.4187 0.918679 7.23 0.786828 7.02061 0.697053C6.81123 0.607279 6.58563 0.561497 6.35781 0.562548C5.54531 0.562548 4.82656 1.10942 4.61094 1.89224L3.27031 6.74849L3.26562 13.436H10.6422C10.7875 13.436 10.9266 13.4079 11.0562 13.3516C11.8 13.0344 12.2797 12.3079 12.2797 11.5016C12.2797 11.3047 12.2516 11.111 12.1953 10.9235C12.4578 10.5766 12.6031 10.1516 12.6031 9.70942C12.6031 9.51255 12.575 9.3188 12.5188 9.1313C12.7812 8.78442 12.9266 8.35942 12.9266 7.91724C12.9266 7.72036 12.8984 7.52661 12.8422 7.33911ZM11.8188 6.79692L11.4766 7.0938L11.6953 7.49224C11.7669 7.62297 11.804 7.76976 11.8031 7.9188C11.8031 8.17661 11.6922 8.42192 11.4969 8.59067L11.1547 8.88755L11.3719 9.28442C11.4434 9.41516 11.4805 9.56195 11.4797 9.71099C11.4797 9.9688 11.3687 10.2141 11.1734 10.3829L10.8313 10.6797L11.0484 11.0766C11.12 11.2073 11.1571 11.3541 11.1562 11.5032C11.1562 11.8532 10.95 12.1688 10.6313 12.3125H4.39062V6.9188C4.68125 5.8688 5.11562 4.2938 5.69531 2.19224C5.73581 2.04809 5.82198 1.92098 5.94087 1.82998C6.05977 1.73898 6.20497 1.689 6.35469 1.68755C6.47188 1.68599 6.58906 1.72192 6.68437 1.79224C6.83906 1.90786 6.92188 2.08286 6.9125 2.2688L6.7625 5.3688H11.675C11.9531 5.53911 12.125 5.82661 12.125 6.12505C12.125 6.38286 12.0141 6.62817 11.8188 6.79692Z"/>
    </g>
</symbol>
<symbol id="like-big" viewBox="0 0 20 20">
    <g>
        <path d="M18.7633 10.5094C19.157 9.98909 19.375 9.35159 19.375 8.6883C19.375 7.63596 18.7867 6.63987 17.8398 6.0844C17.5961 5.94142 17.3185 5.86617 17.0359 5.86643H11.4156L11.5563 2.98596C11.5891 2.28987 11.343 1.62893 10.8648 1.12502C10.6302 0.876652 10.3471 0.679038 10.0331 0.544395C9.71905 0.409752 9.38074 0.34094 9.03906 0.342211C7.82031 0.342211 6.74219 1.16252 6.41875 2.33674L4.40547 9.62581H1.375C0.960156 9.62581 0.625 9.96096 0.625 10.3758V18.9071C0.625 19.3219 0.960156 19.6571 1.375 19.6571H15.468C15.6836 19.6571 15.8945 19.6149 16.0891 19.5305C17.2047 19.0547 17.9242 17.9649 17.9242 16.7555C17.9242 16.4602 17.882 16.1696 17.7977 15.8883C18.1914 15.368 18.4094 14.7305 18.4094 14.0672C18.4094 13.7719 18.3672 13.4813 18.2828 13.2C18.6766 12.6797 18.8945 12.0422 18.8945 11.3789C18.8898 11.0836 18.8477 10.7906 18.7633 10.5094ZM2.3125 17.9696V11.3133H4.21094V17.9696H2.3125ZM17.2281 9.69612L16.7148 10.1414L17.0406 10.7367C17.148 10.9328 17.2036 11.153 17.2023 11.3766C17.2023 11.7633 17.0336 12.1313 16.743 12.3844L16.2297 12.8297L16.5555 13.425C16.6628 13.6211 16.7185 13.8413 16.7172 14.0649C16.7172 14.4516 16.5484 14.8196 16.2578 15.0727L15.7445 15.518L16.0703 16.1133C16.1776 16.3094 16.2333 16.5296 16.232 16.7531C16.232 17.2781 15.9227 17.7516 15.4445 17.9672H5.71094V11.2383L8.04297 2.78909C8.1031 2.57252 8.23219 2.38147 8.41066 2.24486C8.58914 2.10825 8.80728 2.03354 9.03203 2.03205C9.21016 2.03205 9.38594 2.08362 9.52656 2.18909C9.75859 2.36252 9.88281 2.62502 9.86875 2.90393L9.64375 7.55393H17.0125C17.4297 7.8094 17.6875 8.24065 17.6875 8.6883C17.6875 9.07502 17.5188 9.44065 17.2281 9.69612Z"/>
    </g>
</symbol>
<symbol id="comment" viewBox="0 0 22 22">
    <g>
        <path d="M9.87518 11C9.87518 11.2984 9.9937 11.5845 10.2047 11.7955C10.4157 12.0065 10.7018 12.125 11.0002 12.125C11.2985 12.125 11.5847 12.0065 11.7957 11.7955C12.0067 11.5845 12.1252 11.2984 12.1252 11C12.1252 10.7016 12.0067 10.4155 11.7957 10.2045C11.5847 9.99353 11.2985 9.875 11.0002 9.875C10.7018 9.875 10.4157 9.99353 10.2047 10.2045C9.9937 10.4155 9.87518 10.7016 9.87518 11ZM14.5627 11C14.5627 11.2984 14.6812 11.5845 14.8922 11.7955C15.1032 12.0065 15.3893 12.125 15.6877 12.125C15.986 12.125 16.2722 12.0065 16.4832 11.7955C16.6942 11.5845 16.8127 11.2984 16.8127 11C16.8127 10.7016 16.6942 10.4155 16.4832 10.2045C16.2722 9.99353 15.986 9.875 15.6877 9.875C15.3893 9.875 15.1032 9.99353 14.8922 10.2045C14.6812 10.4155 14.5627 10.7016 14.5627 11ZM5.18768 11C5.18768 11.2984 5.30621 11.5845 5.51718 11.7955C5.72816 12.0065 6.01431 12.125 6.31268 12.125C6.61105 12.125 6.8972 12.0065 7.10817 11.7955C7.31915 11.5845 7.43768 11.2984 7.43768 11C7.43768 10.7016 7.31915 10.4155 7.10817 10.2045C6.8972 9.99353 6.61105 9.875 6.31268 9.875C6.01431 9.875 5.72816 9.99353 5.51718 10.2045C5.30621 10.4155 5.18768 10.7016 5.18768 11ZM20.6846 6.93125C20.1549 5.67266 19.3955 4.54297 18.4275 3.57266C17.4663 2.60796 16.3253 1.84114 15.0689 1.31563C13.7799 0.774219 12.4111 0.5 11.0002 0.5H10.9533C9.53299 0.507031 8.15721 0.788281 6.86346 1.34141C5.61789 1.87232 4.48752 2.64049 3.53534 3.60312C2.57674 4.57109 1.8244 5.69609 1.30409 6.95C0.765023 8.24844 0.493147 9.62891 0.500179 11.0492C0.508132 12.6769 0.893206 14.2806 1.62518 15.7344V19.2969C1.62518 19.5828 1.73877 19.857 1.94095 20.0592C2.14314 20.2614 2.41737 20.375 2.7033 20.375H6.26815C7.72196 21.107 9.32564 21.492 10.9533 21.5H11.0025C12.4064 21.5 13.7681 21.2281 15.0502 20.6961C16.3002 20.1768 17.437 19.419 18.3971 18.4648C19.365 17.5063 20.1267 16.3859 20.6588 15.1367C21.2119 13.843 21.4931 12.4672 21.5002 11.0469C21.5072 9.61953 21.2306 8.23438 20.6846 6.93125ZM17.1431 17.1969C15.5002 18.8234 13.3205 19.7188 11.0002 19.7188H10.9603C9.54705 19.7117 8.14315 19.3602 6.9033 18.6992L6.70643 18.5938H3.40643V15.2938L3.30096 15.0969C2.64002 13.857 2.28846 12.4531 2.28143 11.0398C2.27205 8.70312 3.16502 6.50937 4.8033 4.85703C6.43924 3.20469 8.62596 2.29062 10.9627 2.28125H11.0025C12.1744 2.28125 13.3111 2.50859 14.3822 2.95859C15.4275 3.39687 16.365 4.02734 17.1713 4.83359C17.9752 5.6375 18.608 6.57734 19.0463 7.62266C19.501 8.70547 19.7283 9.85391 19.7236 11.0398C19.7096 13.3742 18.7931 15.5609 17.1431 17.1969Z"/>
    </g>
</symbol>
<symbol id="share" viewBox="0 0 18 20">
    <g>
        <path d="M14.625 13.5625C13.957 13.5625 13.3406 13.7969 12.8578 14.1883L8.00156 10.675C8.08288 10.2287 8.08288 9.77133 8.00156 9.325L12.8578 5.81172C13.3406 6.20312 13.957 6.4375 14.625 6.4375C16.1766 6.4375 17.4375 5.17656 17.4375 3.625C17.4375 2.07344 16.1766 0.8125 14.625 0.8125C13.0734 0.8125 11.8125 2.07344 11.8125 3.625C11.8125 3.89687 11.85 4.15703 11.9227 4.40547L7.31016 7.74531C6.62578 6.83828 5.53828 6.25 4.3125 6.25C2.24062 6.25 0.5625 7.92812 0.5625 10C0.5625 12.0719 2.24062 13.75 4.3125 13.75C5.53828 13.75 6.62578 13.1617 7.31016 12.2547L11.9227 15.5945C11.85 15.843 11.8125 16.1055 11.8125 16.375C11.8125 17.9266 13.0734 19.1875 14.625 19.1875C16.1766 19.1875 17.4375 17.9266 17.4375 16.375C17.4375 14.8234 16.1766 13.5625 14.625 13.5625ZM14.625 2.40625C15.2977 2.40625 15.8438 2.95234 15.8438 3.625C15.8438 4.29766 15.2977 4.84375 14.625 4.84375C13.9523 4.84375 13.4062 4.29766 13.4062 3.625C13.4062 2.95234 13.9523 2.40625 14.625 2.40625ZM4.3125 12.0625C3.17578 12.0625 2.25 11.1367 2.25 10C2.25 8.86328 3.17578 7.9375 4.3125 7.9375C5.44922 7.9375 6.375 8.86328 6.375 10C6.375 11.1367 5.44922 12.0625 4.3125 12.0625ZM14.625 17.5938C13.9523 17.5938 13.4062 17.0477 13.4062 16.375C13.4062 15.7023 13.9523 15.1562 14.625 15.1562C15.2977 15.1562 15.8438 15.7023 15.8438 16.375C15.8438 17.0477 15.2977 17.5938 14.625 17.5938Z"/>
    </g>
</symbol>
</svg>
