<svg width="22" height="22" viewBox="0 0 22 22" fill="none" xmlns="http://www.w3.org/2000/svg">
<path d="M17.1719 4.83371C16.3735 4.03264 15.426 3.39565 14.3828 2.95871C13.3129 2.50917 12.1637 2.27885 11.0031 2.28136H10.9633C8.62659 2.29074 6.43987 3.2048 4.80393 4.85714C3.16565 6.50949 2.27268 8.70324 2.28206 11.04C2.28909 12.4532 2.64065 13.8571 3.30159 15.097L3.40706 15.2939V18.5939H6.70706L6.90393 18.6993C8.14377 19.3603 9.54768 19.7118 10.961 19.7189H11.0008C13.3211 19.7189 15.5008 18.8235 17.1438 17.197C18.7938 15.561 19.7102 13.3743 19.7242 11.04C19.7289 9.85402 19.5016 8.70558 19.0469 7.62277C18.6097 6.57975 17.9727 5.63229 17.1719 4.83371ZM6.31331 12.1251C6.01891 12.1191 5.73861 11.9979 5.53253 11.7876C5.32646 11.5773 5.21104 11.2946 5.21104 11.0001C5.21104 10.7057 5.32646 10.4229 5.53253 10.2126C5.73861 10.0023 6.01891 9.88112 6.31331 9.87511C6.6077 9.88112 6.88801 10.0023 7.09408 10.2126C7.30015 10.4229 7.41558 10.7057 7.41558 11.0001C7.41558 11.2946 7.30015 11.5773 7.09408 11.7876C6.88801 11.9979 6.6077 12.1191 6.31331 12.1251ZM11.0008 12.1251C10.7064 12.1191 10.4261 11.9979 10.22 11.7876C10.014 11.5773 9.89854 11.2946 9.89854 11.0001C9.89854 10.7057 10.014 10.4229 10.22 10.2126C10.4261 10.0023 10.7064 9.88112 11.0008 9.87511C11.2952 9.88112 11.5755 10.0023 11.7816 10.2126C11.9877 10.4229 12.1031 10.7057 12.1031 11.0001C12.1031 11.2946 11.9877 11.5773 11.7816 11.7876C11.5755 11.9979 11.2952 12.1191 11.0008 12.1251ZM15.6883 12.1251C15.3939 12.1191 15.1136 11.9979 14.9075 11.7876C14.7015 11.5773 14.586 11.2946 14.586 11.0001C14.586 10.7057 14.7015 10.4229 14.9075 10.2126C15.1136 10.0023 15.3939 9.88112 15.6883 9.87511C15.9827 9.88112 16.263 10.0023 16.4691 10.2126C16.6752 10.4229 16.7906 10.7057 16.7906 11.0001C16.7906 11.2946 16.6752 11.5773 16.4691 11.7876C16.263 11.9979 15.9827 12.1191 15.6883 12.1251Z" fill="#E6F7FF"/>
<path d="M14.5625 11C14.5625 11.2984 14.681 11.5845 14.892 11.7955C15.103 12.0065 15.3891 12.125 15.6875 12.125C15.9859 12.125 16.272 12.0065 16.483 11.7955C16.694 11.5845 16.8125 11.2984 16.8125 11C16.8125 10.7016 16.694 10.4155 16.483 10.2045C16.272 9.99353 15.9859 9.875 15.6875 9.875C15.3891 9.875 15.103 9.99353 14.892 10.2045C14.681 10.4155 14.5625 10.7016 14.5625 11ZM5.1875 11C5.1875 11.2984 5.30603 11.5845 5.517 11.7955C5.72798 12.0065 6.01413 12.125 6.3125 12.125C6.61087 12.125 6.89702 12.0065 7.108 11.7955C7.31897 11.5845 7.4375 11.2984 7.4375 11C7.4375 10.7016 7.31897 10.4155 7.108 10.2045C6.89702 9.99353 6.61087 9.875 6.3125 9.875C6.01413 9.875 5.72798 9.99353 5.517 10.2045C5.30603 10.4155 5.1875 10.7016 5.1875 11Z" fill="#1890FF"/>
<path d="M20.6846 6.93125C20.1549 5.67266 19.3955 4.54297 18.4275 3.57266C17.4663 2.60796 16.3253 1.84114 15.0689 1.31563C13.7799 0.774219 12.4111 0.5 11.0002 0.5H10.9533C9.53301 0.507031 8.15723 0.788281 6.86348 1.34141C5.61791 1.87232 4.48753 2.64049 3.53535 3.60312C2.57676 4.57109 1.82441 5.69609 1.3041 6.95C0.765038 8.24844 0.493163 9.62891 0.500194 11.0492C0.508147 12.6769 0.893222 14.2806 1.62519 15.7344V19.2969C1.62519 19.5828 1.73878 19.857 1.94097 20.0592C2.14316 20.2614 2.41738 20.375 2.70332 20.375H6.26816C7.72198 21.107 9.32565 21.492 10.9533 21.5H11.0025C12.4064 21.5 13.7682 21.2281 15.0502 20.6961C16.3002 20.1768 17.437 19.419 18.3971 18.4648C19.365 17.5063 20.1268 16.3859 20.6588 15.1367C21.2119 13.843 21.4932 12.4672 21.5002 11.0469C21.5072 9.61953 21.2307 8.23438 20.6846 6.93125ZM17.1432 17.1969C15.5002 18.8234 13.3205 19.7188 11.0002 19.7188H10.9604C9.54707 19.7117 8.14316 19.3602 6.90332 18.6992L6.70644 18.5938H3.40644V15.2938L3.30098 15.0969C2.64004 13.857 2.28848 12.4531 2.28144 11.0398C2.27207 8.70312 3.16504 6.50937 4.80332 4.85703C6.43926 3.20469 8.62598 2.29062 10.9627 2.28125H11.0025C12.1744 2.28125 13.3111 2.50859 14.3822 2.95859C15.4275 3.39687 16.365 4.02734 17.1713 4.83359C17.9752 5.6375 18.608 6.57734 19.0463 7.62266C19.501 8.70547 19.7283 9.85391 19.7236 11.0398C19.7096 13.3742 18.7932 15.5609 17.1432 17.1969Z" fill="#1890FF"/>
<path d="M9.875 11C9.875 11.2984 9.99353 11.5845 10.2045 11.7955C10.4155 12.0065 10.7016 12.125 11 12.125C11.2984 12.125 11.5845 12.0065 11.7955 11.7955C12.0065 11.5845 12.125 11.2984 12.125 11C12.125 10.7016 12.0065 10.4155 11.7955 10.2045C11.5845 9.99353 11.2984 9.875 11 9.875C10.7016 9.875 10.4155 9.99353 10.2045 10.2045C9.99353 10.4155 9.875 10.7016 9.875 11Z" fill="#1890FF"/>
</svg>
