<svg width="22" height="22" viewBox="0 0 22 22" fill="none" xmlns="http://www.w3.org/2000/svg">
<path d="M11 0.5C5.20156 0.5 0.5 5.20156 0.5 11C0.5 16.7984 5.20156 21.5 11 21.5C16.7984 21.5 21.5 16.7984 21.5 11C21.5 5.20156 16.7984 0.5 11 0.5ZM11 19.7188C6.18594 19.7188 2.28125 15.8141 2.28125 11C2.28125 6.18594 6.18594 2.28125 11 2.28125C15.8141 2.28125 19.7188 6.18594 19.7188 11C19.7188 15.8141 15.8141 19.7188 11 19.7188Z" fill="#1890FF"/>
<path d="M11 2.28125C6.18594 2.28125 2.28125 6.18594 2.28125 11C2.28125 15.8141 6.18594 19.7188 11 19.7188C15.8141 19.7188 19.7188 15.8141 19.7188 11C19.7188 6.18594 15.8141 2.28125 11 2.28125ZM5.75 8.86719C5.75601 8.5728 5.87718 8.29249 6.0875 8.08641C6.29782 7.88034 6.58055 7.76492 6.875 7.76492C7.16945 7.76492 7.45218 7.88034 7.6625 8.08641C7.87282 8.29249 7.99399 8.5728 8 8.86719C7.99399 9.16158 7.87282 9.44189 7.6625 9.64796C7.45218 9.85404 7.16945 9.96946 6.875 9.96946C6.58055 9.96946 6.29782 9.85404 6.0875 9.64796C5.87718 9.44189 5.75601 9.16158 5.75 8.86719ZM11 15.2422C8.99609 15.2422 7.35313 13.6648 7.25 11.6891C7.24873 11.6637 7.25264 11.6383 7.26149 11.6144C7.27034 11.5906 7.28395 11.5688 7.30149 11.5504C7.31903 11.532 7.34013 11.5173 7.36351 11.5073C7.3869 11.4973 7.41207 11.4922 7.4375 11.4922H8.56484C8.66328 11.4922 8.74766 11.5672 8.75469 11.6656C8.84375 12.8258 9.81641 13.7422 11 13.7422C12.1836 13.7422 13.1586 12.8258 13.2453 11.6656C13.2523 11.5672 13.3367 11.4922 13.4352 11.4922H14.5625C14.5879 11.4922 14.6131 11.4973 14.6365 11.5073C14.6599 11.5173 14.681 11.532 14.6985 11.5504C14.716 11.5688 14.7297 11.5906 14.7385 11.6144C14.7474 11.6383 14.7513 11.6637 14.75 11.6891C14.6469 13.6648 13.0039 15.2422 11 15.2422ZM15.125 9.99219C14.8306 9.98618 14.5503 9.86501 14.3442 9.65469C14.1382 9.44436 14.0227 9.16164 14.0227 8.86719C14.0227 8.57273 14.1382 8.29001 14.3442 8.07969C14.5503 7.86936 14.8306 7.7482 15.125 7.74219C15.4194 7.7482 15.6997 7.86936 15.9058 8.07969C16.1118 8.29001 16.2273 8.57273 16.2273 8.86719C16.2273 9.16164 16.1118 9.44436 15.9058 9.65469C15.6997 9.86501 15.4194 9.98618 15.125 9.99219Z" fill="#E6F7FF"/>
<path d="M5.75 8.86719C5.75 9.16556 5.86853 9.4517 6.0795 9.66268C6.29048 9.87366 6.57663 9.99219 6.875 9.99219C7.17337 9.99219 7.45952 9.87366 7.6705 9.66268C7.88147 9.4517 8 9.16556 8 8.86719C8 8.56882 7.88147 8.28267 7.6705 8.07169C7.45952 7.86071 7.17337 7.74219 6.875 7.74219C6.57663 7.74219 6.29048 7.86071 6.0795 8.07169C5.86853 8.28267 5.75 8.56882 5.75 8.86719ZM14.5625 11.4922H13.4352C13.3367 11.4922 13.2523 11.5672 13.2453 11.6656C13.1586 12.8258 12.1836 13.7422 11 13.7422C9.81641 13.7422 8.84375 12.8258 8.75469 11.6656C8.74766 11.5672 8.66328 11.4922 8.56484 11.4922H7.4375C7.41207 11.4922 7.3869 11.4973 7.36351 11.5073C7.34013 11.5173 7.31903 11.532 7.30149 11.5504C7.28395 11.5688 7.27034 11.5906 7.26149 11.6144C7.25264 11.6383 7.24873 11.6637 7.25 11.6891C7.35312 13.6648 8.99609 15.2422 11 15.2422C13.0039 15.2422 14.6469 13.6648 14.75 11.6891C14.7513 11.6637 14.7474 11.6383 14.7385 11.6144C14.7297 11.5906 14.716 11.5688 14.6985 11.5504C14.681 11.532 14.6599 11.5173 14.6365 11.5073C14.6131 11.4973 14.5879 11.4922 14.5625 11.4922ZM14 8.86719C14 9.16556 14.1185 9.4517 14.3295 9.66268C14.5405 9.87366 14.8266 9.99219 15.125 9.99219C15.4234 9.99219 15.7095 9.87366 15.9205 9.66268C16.1315 9.4517 16.25 9.16556 16.25 8.86719C16.25 8.56882 16.1315 8.28267 15.9205 8.07169C15.7095 7.86071 15.4234 7.74219 15.125 7.74219C14.8266 7.74219 14.5405 7.86071 14.3295 8.07169C14.1185 8.28267 14 8.56882 14 8.86719Z" fill="#1890FF"/>
</svg>
